<?xml version="1.0" standalone="no"?>
<!DOCTYPE svg PUBLIC "-//W3C//DTD SVG 20010904//EN"
 "http://www.w3.org/TR/2001/REC-SVG-20010904/DTD/svg10.dtd">
<svg version="1.0" xmlns="http://www.w3.org/2000/svg"
 width="448.000000pt" height="452.000000pt" viewBox="0 0 448.000000 452.000000"
 preserveAspectRatio="xMidYMid meet">

<rect x="0" y="0" width="448" height="452" fill="#ffffff"/>

<g transform="translate(0.000000,452.000000) scale(0.100000,-0.100000)"
fill="#000000" stroke="none">
<path d="M0 2260 l0 -2260 2240 0 2240 0 0 2260 0 2260 -2240 0 -2240 0 0
-2260z m2498 2229 c427 -47 813 -211 1170 -498 278 -224 512 -547 657 -906
134 -332 178 -852 104 -1233 -75 -389 -336 -858 -635 -1142 -332 -315 -730
-516 -1179 -595 -204 -36 -638 -28 -850 16 -317 65 -710 254 -954 457 -105 87
-267 250 -335 337 -245 311 -421 722 -455 1059 -14 138 -14 481 -1 617 22 219
103 464 237 719 302 576 857 999 1478 1130 79 17 186 32 295 43 83 9 379 6
468 -4z"/>
<path d="M1910 4353 c-159 -25 -478 -126 -614 -194 -537 -268 -953 -781 -1100
-1354 -46 -182 -56 -264 -56 -482 0 -401 47 -618 200 -928 116 -234 232 -398
400 -565 336 -334 762 -538 1255 -601 134 -17 461 -6 607 20 449 81 838 288
1154 613 169 172 287 344 386 560 139 302 188 526 188 856 0 201 -12 324 -46
477 -137 620 -591 1172 -1175 1430 -199 88 -380 141 -549 160 -115 14 -580 19
-650 8z m1202 -462 c43 -17 68 -55 79 -122 14 -80 4 -382 -14 -418 -40 -83
-175 -95 -241 -23 -21 24 -35 154 -36 335 0 120 10 156 57 200 48 45 92 52
155 28z m-1536 -10 c17 -11 41 -40 54 -65 21 -44 22 -56 18 -234 -3 -140 -8
-196 -20 -222 -41 -94 -181 -107 -246 -22 l-27 35 0 201 c0 223 7 259 56 301
39 32 118 35 165 6z m-304 -389 c2 -92 7 -115 28 -157 37 -71 105 -118 180
-123 76 -6 119 10 179 64 53 48 71 95 71 188 0 24 3 64 6 90 l7 46 533 0 533
0 5 -42 c3 -24 8 -77 11 -118 10 -136 91 -220 219 -228 75 -5 124 16 179 77
46 51 57 93 57 215 l0 98 148 -3 c137 -4 151 -6 205 -32 40 -20 73 -47 106
-87 l49 -58 7 -558 c4 -307 6 -814 3 -1126 l-4 -567 -39 -56 c-60 -88 -106
-122 -173 -129 -112 -12 -2152 -18 -2415 -8 -258 11 -259 11 -295 38 -20 15
-50 41 -65 58 -62 69 -60 54 -68 511 -4 231 -8 728 -8 1104 l-1 683 35 59 c41
66 125 147 164 155 14 3 31 7 36 9 6 2 76 4 157 4 l146 1 4 -108z"/>
<path d="M1000 2093 l0 -896 1248 6 c686 4 1257 10 1270 13 l22 6 0 553 c0
303 -3 701 -7 883 l-6 332 -1264 0 -1263 0 0 -897z m770 557 l0 -200 -310 0
-310 0 0 200 0 200 310 0 310 0 0 -200z m810 0 l0 -200 -305 0 -305 0 0 200 0
200 305 0 305 0 0 -200z m800 0 l0 -200 -305 0 -305 0 0 194 c0 146 3 196 13
199 6 3 144 6 305 6 l292 1 0 -200z m-1610 -555 l0 -195 -310 0 -310 0 0 195
0 195 310 0 310 0 0 -195z m810 0 l0 -195 -305 0 -305 0 0 195 0 195 305 0
305 0 0 -195z m800 0 l0 -195 -305 0 -305 0 0 195 0 195 305 0 305 0 0 -195z
m-1610 -555 l0 -200 -310 0 -310 0 0 200 0 200 310 0 310 0 0 -200z m810 0 l0
-200 -305 0 -305 0 0 200 0 200 305 0 305 0 0 -200z m800 0 l0 -200 -305 0
-305 0 0 200 0 200 305 0 305 0 0 -200z"/>
</g>
</svg>
